<svg xmlns="http://www.w3.org/2000/svg" width="1200" height="750" viewBox="0 0 1200 750">
  <defs>
    <linearGradient id="bg" x1="0" y1="0" x2="1" y2="1">
      <stop offset="0" stop-color="#f0f9ff"/>
      <stop offset="1" stop-color="#e0e7ff"/>
    </linearGradient>
    <linearGradient id="glass" x1="0" y1="0" x2="0" y2="1">
      <stop offset="0" stop-color="#ffffff" stop-opacity="0.85"/>
      <stop offset="1" stop-color="#ffffff" stop-opacity="0.65"/>
    </linearGradient>
  </defs>
  <rect width="1200" height="750" fill="url(#bg)"/>
  <g transform="translate(0,0)">
    <path d="M430 220h340l-28 380c-2 30-24 52-54 52H512c-30 0-52-22-54-52z" fill="url(#glass)"/>
    <path d="M462 320h276l-14 250c-2 20-18 34-38 34H514c-20 0-36-14-38-34z" fill="#bbf7d0" opacity="0.75"/>
    <g opacity="0.9">
      <rect x="505" y="355" width="90" height="70" rx="18" fill="#ffffff"/>
      <rect x="610" y="392" width="95" height="70" rx="18" fill="#ffffff"/>
      <circle cx="540" cy="470" r="18" fill="#fb7185"/>
      <circle cx="620" cy="520" r="18" fill="#60a5fa"/>
      <circle cx="690" cy="500" r="18" fill="#f59e0b"/>
    </g>
    <path d="M452 260c60-40 250-40 320 0" fill="none" stroke="#93c5fd" stroke-width="10" stroke-linecap="round" opacity="0.65"/>
  </g>
  <text x="60" y="680" font-family="system-ui,Segoe UI,Roboto,sans-serif" font-size="46" fill="#0f172a" opacity="0.72">Ch×</text>
</svg>
