<svg xmlns="http://www.w3.org/2000/svg" width="1200" height="750" viewBox="0 0 1200 750">
  <defs>
    <linearGradient id="bg" x1="0" y1="0" x2="1" y2="1">
      <stop offset="0" stop-color="#fff7ed"/>
      <stop offset="1" stop-color="#fde68a"/>
    </linearGradient>
    <linearGradient id="steam" x1="0" y1="0" x2="0" y2="1">
      <stop offset="0" stop-color="#ffffff" stop-opacity="0.9"/>
      <stop offset="1" stop-color="#ffffff" stop-opacity="0"/>
    </linearGradient>
  </defs>
  <rect width="1200" height="750" fill="url(#bg)"/>
  <g opacity="0.9">
    <path d="M360 180c-30 60 10 90 0 140" fill="none" stroke="url(#steam)" stroke-width="20" stroke-linecap="round"/>
    <path d="M460 160c-30 60 10 90 0 140" fill="none" stroke="url(#steam)" stroke-width="16" stroke-linecap="round"/>
    <path d="M560 175c-30 60 10 90 0 140" fill="none" stroke="url(#steam)" stroke-width="18" stroke-linecap="round"/>
  </g>
  <g transform="translate(0,10)">
    <ellipse cx="600" cy="455" rx="320" ry="86" fill="#ffffff" opacity="0.95"/>
    <ellipse cx="600" cy="450" rx="292" ry="68" fill="#fef3c7"/>
    <ellipse cx="600" cy="450" rx="240" ry="50" fill="#fde68a" opacity="0.9"/>
    <circle cx="480" cy="445" r="22" fill="#ef4444" opacity="0.9"/>
    <circle cx="720" cy="460" r="18" fill="#ef4444" opacity="0.8"/>
    <path d="M420 445c80-40 200-40 360 0" fill="none" stroke="#a16207" stroke-width="10" stroke-linecap="round" opacity="0.55"/>
    <path d="M450 478c70-25 230-25 300 0" fill="none" stroke="#16a34a" stroke-width="10" stroke-linecap="round" opacity="0.55"/>
    <path d="M320 505c70 70 490 70 560 0" fill="none" stroke="#e5e7eb" stroke-width="22" stroke-linecap="round" opacity="0.9"/>
  </g>
  <text x="60" y="680" font-family="system-ui,Segoe UI,Roboto,sans-serif" font-size="46" fill="#111827" opacity="0.75">Ph▀ b“</text>
</svg>
